<svg xmlns="http://www.w3.org/2000/svg" viewBox="0 0 800 500">
  <!-- Background -->
  <rect width="800" height="500" fill="#f8f9fa" rx="10" ry="10"/>
  
  <!-- Document outline -->
  <rect x="100" y="80" width="250" height="340" fill="white" stroke="#ddd" stroke-width="2" rx="5" ry="5"/>
  
  <!-- Document lines -->
  <line x1="120" y1="120" x2="330" y2="120" stroke="#333" stroke-width="4"/>
  <line x1="120" y1="140" x2="240" y2="140" stroke="#777" stroke-width="2"/>
  <line x1="120" y1="170" x2="330" y2="170" stroke="#aaa" stroke-width="1"/>
  <line x1="120" y1="190" x2="330" y2="190" stroke="#aaa" stroke-width="1"/>
  <line x1="120" y1="210" x2="330" y2="210" stroke="#aaa" stroke-width="1"/>
  
  <line x1="120" y1="240" x2="330" y2="240" stroke="#333" stroke-width="2"/>
  <line x1="120" y1="260" x2="330" y2="260" stroke="#aaa" stroke-width="1"/>
  <line x1="120" y1="280" x2="330" y2="280" stroke="#aaa" stroke-width="1"/>
  
  <line x1="120" y1="310" x2="330" y2="310" stroke="#333" stroke-width="2"/>
  <line x1="120" y1="330" x2="330" y2="330" stroke="#aaa" stroke-width="1"/>
  <line x1="120" y1="350" x2="330" y2="350" stroke="#aaa" stroke-width="1"/>
  <line x1="120" y1="370" x2="330" y2="370" stroke="#aaa" stroke-width="1"/>
  
  <!-- Parsing arrows and highlights -->
  <path d="M350 120 C 400 120, 400 150, 450 150" fill="none" stroke="#3498db" stroke-width="3" stroke-dasharray="5,5"/>
  <path d="M350 240 C 400 240, 400 220, 450 220" fill="none" stroke="#3498db" stroke-width="3" stroke-dasharray="5,5"/>
  <path d="M350 310 C 400 310, 400 290, 450 290" fill="none" stroke="#3498db" stroke-width="3" stroke-dasharray="5,5"/>
  
  <!-- Data structure -->
  <rect x="450" y="80" width="250" height="340" fill="white" stroke="#ddd" stroke-width="2" rx="5" ry="5"/>
  
  <!-- JSON-like structure -->
  <text x="470" y="120" font-family="monospace" font-size="14" fill="#333">{</text>
  <text x="480" y="150" font-family="monospace" font-size="14" fill="#e74c3c">"name": "John Doe",</text>
  <text x="480" y="180" font-family="monospace" font-size="14" fill="#333">"contact": {</text>
  <text x="490" y="210" font-family="monospace" font-size="14" fill="#333">"email": "john@example.com",</text>
  <text x="490" y="240" font-family="monospace" font-size="14" fill="#333">"phone": "555-123-4567"</text>
  <text x="480" y="270" font-family="monospace" font-size="14" fill="#333">},</text>
  <text x="480" y="300" font-family="monospace" font-size="14" fill="#e74c3c">"experience": [</text>
  <text x="490" y="330" font-family="monospace" font-size="14" fill="#333">{ "title": "Developer",</text>
  <text x="500" y="360" font-family="monospace" font-size="14" fill="#333">"years": "2020-2023" }</text>
  <text x="480" y="390" font-family="monospace" font-size="14" fill="#333">]</text>
  <text x="470" y="420" font-family="monospace" font-size="14" fill="#333">}</text>
  
  <!-- Magnifying glass -->
  <circle cx="330" cy="170" r="25" fill="none" stroke="#3498db" stroke-width="3"/>
  <line x1="345" y1="185" x2="365" y2="205" stroke="#3498db" stroke-width="4"/>
  
  <!-- Title -->
  <text x="400" y="50" font-family="Arial, sans-serif" font-size="24" fill="#2c3e50" text-anchor="middle" font-weight="bold">Resume Parser</text>
</svg>
